
<svg id="e6d15d18-a685-4480-ac2b-bd578043a679" data-name="Layer 1" xmlns="http://www.w3.org/2000/svg" width="1041.32" height="554.17" viewBox="0 0 1041.32 554.17"><title>programmer</title><path d="M222.143 129.401c-2.144 1.552-4.336 3.024-6.64 4.352-1.856 1.072-3.056 1.68-3.888 2.032-4.144 4.096-8.416 8.016-12.416 12.272-4.064 4.336-7.856 8.88-11.744 13.36-.064.112-.032.096-.112.224-11.424 20.096-23.568 40.016-38.128 58.032 190.768 102.864 257.712 210.176 196.528 282.48.128-.048.272-.112.4-.16 47.648-19.872 80.256-67.28 76.448-118.784-5.584-75.6-70.592-164.976-200.448-253.808z" transform="translate(-79.34 -172.91)" fill="#FFD93B"/></svg>